<?xml version="1.0" encoding="UTF-8" standalone="no"?><!DOCTYPE svg PUBLIC "-//W3C//DTD SVG 1.1//EN" "http://www.w3.org/Graphics/SVG/1.1/DTD/svg11.dtd"><svg width="100%" height="100%" viewBox="0 0 480 480" version="1.1" xmlns="http://www.w3.org/2000/svg" xmlns:xlink="http://www.w3.org/1999/xlink" xml:space="preserve" xmlns:serif="http://www.serif.com/" style="fill-rule:evenodd;clip-rule:evenodd;stroke-linejoin:round;stroke-miterlimit:2;"><path d="M456,240l-8,0l0,-168c-0.026,-22.08 -17.92,-39.974 -40,-40l-336,0c-22.08,0.026 -39.974,17.92 -40,40l0,120l-8,0c-13.255,0 -24,10.745 -24,24l0,208c0,13.255 10.745,24 24,24l304,0c4.418,0 8,-3.582 8,-8c-0.026,-22.08 -17.92,-39.974 -40,-40l-24,0l0,-48l96,0l0,72c0,13.255 10.745,24 24,24l64,0c13.255,0 24,-10.745 24,-24l0,-160c0,-13.255 -10.745,-24 -24,-24Zm-280,184c0,4.418 -3.582,8 -8,8l-144,0c-4.418,0 -8,-3.582 -8,-8l0,-8l160,0l0,8Zm0,-24l-160,0l0,-184c0,-4.418 3.582,-8 8,-8l144,0c4.418,0 8,3.582 8,8l0,184Zm120,16c10.168,0.012 19.229,6.418 22.632,16l-128.104,0c0.948,-2.562 1.445,-5.268 1.472,-8l0,-8l104,0Zm-104,-16l0,-48l16,0l0,48l-16,0Zm32,0l0,-48l32,0l0,48l-32,0Zm144,-64l-176,0l0,-48l176,0l0,48Zm0,-72l0,8l-176,0l0,-56c-0.027,-3.796 -0.966,-7.53 -2.736,-10.888c0.12,-0.112 0.28,-0.144 0.392,-0.264l79.2,-79.2c3.07,-3.178 2.982,-8.243 -0.196,-11.312c-3.1,-2.994 -8.015,-2.994 -11.116,0l-79.2,79.2c-0.192,0.2 -0.272,0.456 -0.44,0.664c-3.104,-1.44 -6.483,-2.19 -9.904,-2.2l-120,0l0,-120c0,-13.255 10.745,-24 24,-24l336,0c13.255,0 24,10.745 24,24l0,168l-40,0c-13.255,0 -24,10.745 -24,24Zm96,160c0,4.418 -3.582,8 -8,8l-64,0c-4.418,0 -8,-3.582 -8,-8l0,-8l80,0l0,8Zm0,-24l-80,0l0,-136c0,-4.418 3.582,-8 8,-8l64,0c4.418,0 8,3.582 8,8l0,136Z" style="fill-rule:nonzero;"/><path d="M143.396,289.376c-3.1,-2.994 -8.015,-2.994 -11.116,0l-33.936,33.936c-3.178,3.069 -3.266,8.134 -0.196,11.312c3.069,3.178 8.134,3.266 11.312,0.196c0.067,-0.064 0.132,-0.13 0.196,-0.196l33.936,-33.936c3.069,-3.178 2.982,-8.243 -0.196,-11.312Z" style="fill-rule:nonzero;"/><path d="M95.442,289.376c-3.1,-2.994 -8.015,-2.994 -11.116,0l-33.936,33.936c-3.178,3.069 -3.266,8.134 -0.196,11.312c3.069,3.178 8.134,3.266 11.312,0.196c0.067,-0.064 0.132,-0.13 0.196,-0.196l33.936,-33.936c3.069,-3.178 2.982,-8.243 -0.196,-11.312Z" style="fill-rule:nonzero;"/><path d="M317.46,114.344c-3.1,-2.994 -8.015,-2.994 -11.116,0l-79.2,79.2c-3.178,3.069 -3.266,8.134 -0.197,11.312c3.069,3.178 8.134,3.266 11.312,0.197c0.067,-0.064 0.132,-0.13 0.197,-0.197l79.2,-79.2c3.07,-3.178 2.982,-8.243 -0.196,-11.312Z" style="fill-rule:nonzero;"/><path d="M440.772,311.032c-3.1,-2.995 -8.016,-2.995 -11.116,0l-22.624,22.624c-3.178,3.07 -3.266,8.134 -0.196,11.312c3.07,3.178 8.134,3.266 11.312,0.196c0.066,-0.064 0.132,-0.13 0.196,-0.196l22.624,-22.624c3.07,-3.178 2.982,-8.242 -0.196,-11.312Z" style="fill-rule:nonzero;"/><path d="M240.16,304l-0.08,0c-4.418,0.022 -7.982,3.622 -7.96,8.04c0.022,4.418 3.622,7.982 8.04,7.96c4.418,0 8,-3.582 8,-8c0,-4.418 -3.582,-8 -8,-8Z" style="fill-rule:nonzero;"/><path d="M256,64l-32,0c-4.418,0 -8,3.582 -8,8c0,4.418 3.582,8 8,8l32,0c4.418,0 8,-3.582 8,-8c0,-4.418 -3.582,-8 -8,-8Z" style="fill-rule:nonzero;"/></svg>