<?xml version="1.0" encoding="iso-8859-1"?>
<!-- Generator: Adobe Illustrator 19.0.0, SVG Export Plug-In . SVG Version: 6.00 Build 0)  -->
<svg version="1.1" id="Capa_1" xmlns="http://www.w3.org/2000/svg" xmlns:xlink="http://www.w3.org/1999/xlink" x="0px" y="0px"
	 viewBox="0 0 512 512" style="enable-background:new 0 0 512 512;" xml:space="preserve">
<path style="fill:#E0230D;" d="M258.905,0.021v511.959C398.948,510.424,512,396.414,512,256S398.948,1.576,258.905,0.021z"/>
<path style="fill:#FF5440;" d="M258.905,0.021C381.878,1.793,481.095,115.72,481.095,256s-99.217,254.207-222.189,255.979
	C257.937,511.99,256.968,512,256,512C114.618,512,0,397.382,0,256S114.618,0,256,0C256.968,0,257.937,0.01,258.905,0.021z"/>
<path style="fill:#C6E8FF;" d="M413.422,142.289l-16.194,16.194L265.519,449.859c46.513-2.255,92.345-21.097,127.794-56.547
	C461.593,325.032,468.289,218.151,413.422,142.289z"/>
<path style="fill:#FFFFFF;" d="M397.228,158.483c14.031,28.66,22.056,61.965,22.056,97.517
	c0,103.451-68.013,188.008-153.765,193.859c-0.062,0.01-0.124,0.01-0.185,0.01c-43.031,2.05-86.618-10.096-123.045-36.448
	L397.228,158.483z"/>
<path style="fill:#C6E8FF;" d="M369.711,98.578l-8.705,8.705l-95.302-45.132C302.389,63.964,338.651,76.11,369.711,98.578z"/>
<path style="fill:#FFFFFF;" d="M361.006,107.283L98.578,369.711c-54.867-75.863-48.171-182.744,20.109-251.024
	c40.321-40.321,94.107-59.174,147.017-56.536C301.895,64.675,334.932,81.219,361.006,107.283z"/>
</svg>
